<svg xmlns="http://www.w3.org/2000/svg" viewBox="0 0 938 821.68"><defs><style>.cls-1{fill:#212121;}</style></defs><title>Fichier 14</title><g id="Calque_2" data-name="Calque 2"><g id="logo_mini_black"><g id="logo_mini_black-2" data-name="logo_mini_black"><path class="cls-1" d="M706.82,579l96.49-114.19q40.2-47.44,66.53-82.22t40-60.1q26.92-48.65,26.94-99.31,0-79.62-57.9-133.49Q821.4,35.8,736.57,35.78,560.86,35.78,538.35,232h93.28Q645.3,120.63,739.38,120.62q45,0,75.59,29.35t30.55,72.77q0,30.15-22.92,67.95Q811.35,310,789.84,338.54t-53.27,67.54L593.79,579l-1.35,1.62L571.63,605.8l-.53.63-2.76,3.35-.53.63L521.06,667h81.51l.06.12.06-.12H862.32l.12.11.11-.11H938V579Zm226.24,4.09L905.41,627.7l-32.15-21.44-1-.65.11,0,60.48-22.51Zm-11.92,0-53.08,19.76h0l-31.13-19.76Zm-91.85,0L862.19,604l-56.61,9.36,20.75-30.25Zm-7.91,0-20.65,30.09h0l-.14.21-49.75-30.29Zm-78.42,0,6.78,4.12,44,26.78-30.29-.45-42.54-.62L740,583.06Zm-7.83,0-18.28,28.51-26.63-28.51ZM642,599.52l37.4-16.46h1.21l-7.92,35.47-29.52-17.8h0l-1.65-1Zm-4.77-2.36-1-.63-.09.2-28.86-13.67h62Zm47.55-14L713,613.47l-10,1.59-26.35,4.19Zm-89.15,0,.12-.14h1.93l32.21,15.26L577.56,605Zm-65.85,79.72,40.82-49.41,29.54,49.41Zm75-.24-31.41-52.52.41-.51L633.59,602Zm5.18-1.38,28-58.92L658.81,615l11.39,6.87-34.69,22.72-25.58,16.77Zm5,1.62,58.55-38.36,26.16,38.36Zm62.62-39.66,8.92-1.42,28-4.45L704,662ZM708,662.92l10.8-46,35.09.51,39.29.58-84.88,44.87Zm9,0,77.89-41.17-27.74,41.17Zm55.09,0,29.54-43.83L824,636.77l33.11,26.15Zm92.15-15.63-.55,15.62-47.86-37.82,48.41,22.2Zm.16-4.44L808.11,617l57.57-9.52Zm4,1.85,1.28-35.87,33,22-34.88,31.44Zm4.75,18.22,32.66-29.44,25.83,29.44Zm60.71-3.67-25.34-28.89,25.34-40.9Z"/><path class="cls-1" d="M398.43,493.73V0L304.76,136.12,0,579H304.76v88h93.67V579h65.94V493.73Zm-93.67,0H161.63L304.76,285.86Zm4.09-356.34,83.89-121.9L350.63,196.92l-41.78-58.59Zm43,67.51,42.34,41.91-84.68,14.31Zm-43-59.51,40.21,56.38-40.21,53.39Zm0,120,83.51-14.1-83.51,82.19Zm48.35,66.24-46,5.27,79.06-77.8Zm.3,4.09,33.08,56.21-80.72-50.76Zm-48.65,9.66,58.07,36.52L308.85,422.8Zm0,92.57,29.55,55.71-29.55,46.52Zm3.87,103.77,29.17-45.92,49,0L354.8,517ZM393,577.43,309.6,548.28l44.06-25.87Zm-51-85.74h0l-29.47-55.56L392,491.7Zm-33.16,60.67L394,582.08l-85.1,58.49ZM388,593.65l-22.84,39.13-35.2,6.38-11.11,2-4.91.88,76.49-52.56L388,593.65Zm-79.11,69.27v-14l62.19,14Zm80.76,0-74.72-16.87,50.82-9.22,25.76,26.09Zm4.73-2.9-2-2.08-3.5-3.54L369,634.3l23.33-40,2-3.5Zm0-87.76-37.15-51.93,37.15-21.83Zm0-83.89-85.49-59.81v-.75l60.49-42.63,25,100.57Zm0-19.6-20.52-82.55,20.52,12.9Zm0-78.52L360.88,333.4,394.34,260Zm0-149-40.49-40.08L394.34,26.68Z"/><path class="cls-1" d="M34.78,820.51H0V717.79H26.91q12.72,0,19.85,3.42a25.34,25.34,0,0,1,10.89,9.41,25.58,25.58,0,0,1,3.75,13.86q0,15.15-15.66,21.69,11.23,2.13,17.9,9.26a24.18,24.18,0,0,1,6.65,17.06,25.12,25.12,0,0,1-4,14,29.46,29.46,0,0,1-11.88,10.07Q46.54,820.51,34.78,820.51Zm-7.43-89.63H14.71v30.88h9.77q11.77,0,16.73-4.49a14.93,14.93,0,0,0,5-11.61Q46.18,730.87,27.35,730.88Zm1.11,44H14.71v32.57H29.19q12.06,0,16.36-1.88a15.51,15.51,0,0,0,6.91-5.84,15.25,15.25,0,0,0,2.61-8.53,14.6,14.6,0,0,0-2.75-8.6,16.31,16.31,0,0,0-7.83-5.81Q39.41,774.84,28.46,774.85Z"/><path class="cls-1" d="M84.78,717.79h14.7v89.34h46.25v13.38H84.78Z"/><path class="cls-1" d="M209,716.32q23.82,0,39.65,15.07t15.83,37.79q0,22.73-16,37.61t-40.3,14.89q-23.22,0-38.69-14.89T154,769.48q0-23,15.58-38.09T209,716.32Zm.59,14q-17.62,0-29,11t-11.35,28.16q0,16.62,11.39,27.65t28.5,11q17.19,0,28.69-11.24t11.49-28a36.73,36.73,0,0,0-11.49-27.46Q226.33,730.29,209.59,730.29Z"/><path class="cls-1" d="M371.1,796.68v16.18q-16.19,8.82-37.36,8.82-17.21,0-29.19-6.91a50.91,50.91,0,0,1-19-19,51.79,51.79,0,0,1-7-26.25q0-22.43,16-37.72T334,716.47q16.17,0,36,8.45v15.81q-18-10.29-35.23-10.29-17.64,0-29.3,11.13t-11.65,27.91q0,16.9,11.47,27.79t29.34,10.88Q353.3,808.15,371.1,796.68Z"/><path class="cls-1" d="M447.28,717.79h18.37L421.1,766.54l55.51,54H456.54L404,769.77v50.74H389.33V717.79H404v47Z"/><path class="cls-1" d="M576.46,796.68v16.18q-16.17,8.82-37.35,8.82-17.21,0-29.19-6.91a50.84,50.84,0,0,1-19-19,51.7,51.7,0,0,1-7-26.25q0-22.43,16-37.72t39.45-15.29q16.19,0,36,8.45v15.81q-18-10.29-35.22-10.29-17.65,0-29.3,11.13t-11.66,27.91q0,16.9,11.47,27.79T540,808.15Q558.67,808.15,576.46,796.68Z"/><path class="cls-1" d="M667,717.79h14.71V820.51H667V775.8H609.26v44.71H594.55V717.79h14.71V762.2H667Z"/><path class="cls-1" d="M737.12,717.2h10.34l46.06,103.31h-15l-13.7-30.44H721l-12.83,30.44H693ZM758.73,777l-16.57-37.21L726.79,777Z"/><path class="cls-1" d="M804.91,717.79h14.71V820.51H804.91Z"/><path class="cls-1" d="M924,717.79h14V820.51H925.35L856.68,741.4v79.11H842.85V717.79h11.92L924,797.57Z"/></g></g></g></svg>
